#N canvas 0 0 1920 976 10;
#X obj 685 396 bng 25 250 50 0 empty empty play 30 10 0 8 -258699 -241291
-1;
#X obj 715 419 bng 25 250 50 0 empty empty load 30 10 0 8 -258699 -241291
-1;
#X floatatom 524 435 5 0 0 0 - - -;
#X text 519 417 length;
#X floatatom 525 458 5 0 0 0 - - -;
#X text 518 476 volume;
#X floatatom 572 435 5 0 0 0 - - -;
#X floatatom 621 435 5 0 0 0 - - -;
#X text 621 415 pitch;
#X text 573 416 start;
#X msg 562 387 1;
#X msg 524 387 440;
#X obj 601 473 sampleplayer 4;
#X msg 599 387 100;
#X obj 864 213 OSCroute /mouse;
#X obj 943 268 print rejected;
#X obj 864 384 unpack f f;
#X obj 943 383 unpack f f;
#X floatatom 864 414 5 0 0 0 - - -;
#X floatatom 907 417 5 0 0 0 - - -;
#X floatatom 1000 413 5 0 0 0 - - -;
#X floatatom 941 417 5 0 0 0 - - -;
#X obj 862 316 OSCroute /accelerometer/raw/x /accelerometer/raw/y /accelerometer/raw/z
;
#X floatatom 1052 182 5 0 0 0 - - -;
#X floatatom 1054 221 5 0 0 0 - - -;
#X floatatom 1054 259 5 0 0 0 - - -;
#X obj 1100 221 route /accelerometer/raw/z /accelerometer/raw/y /accelerometer/raw/x
;
#X obj 1098 144 route /accelerometer/raw/x /accelerometer/raw/y /accelerometer/raw/z
;
#X obj 1100 183 route /accelerometer/raw/y /accelerometer/raw/x /accelerometer/raw/z
;
#X obj 649 273 bng 15 250 50 0 empty empty empty 17 7 0 10 -262144
-1 -1;
#X obj 429 520 dac~;
#X obj 682 238 moses 11;
#X obj 290 399 bng 25 250 50 0 empty empty play 30 10 0 8 -258699 -241291
-1;
#X obj 320 422 bng 25 250 50 0 empty empty load 30 10 0 8 -258699 -241291
-1;
#X floatatom 129 438 5 0 0 0 - - -;
#X text 124 420 length;
#X floatatom 130 461 5 0 0 0 - - -;
#X text 123 479 volume;
#X floatatom 177 438 5 0 0 0 - - -;
#X floatatom 226 438 5 0 0 0 - - -;
#X text 226 418 pitch;
#X text 178 419 start;
#X msg 167 390 1;
#X msg 129 390 440;
#X msg 204 390 100;
#X obj 491 217 bng 25 250 50 0 empty empty play 30 10 0 8 -258699 -241291
-1;
#X obj 521 240 bng 25 250 50 0 empty empty load 30 10 0 8 -258699 -241291
-1;
#X floatatom 330 256 5 0 0 0 - - -;
#X text 325 238 length;
#X floatatom 331 279 5 0 0 0 - - -;
#X text 324 297 volume;
#X floatatom 378 256 5 0 0 0 - - -;
#X floatatom 427 256 5 0 0 0 - - -;
#X text 427 236 pitch;
#X text 379 237 start;
#X msg 368 208 1;
#X msg 330 208 440;
#X msg 405 208 100;
#X obj 845 76 dumpOSC 12345;
#X obj 677 159 moses 2;
#X obj 682 203 moses 2;
#X obj 407 294 sampleplayer 5;
#X obj 206 476 sampleplayer 6;
#X msg 277 187 8;
#X connect 0 0 12 4;
#X connect 1 0 12 5;
#X connect 2 0 12 1;
#X connect 4 0 12 0;
#X connect 6 0 12 2;
#X connect 7 0 12 3;
#X connect 10 0 6 0;
#X connect 11 0 2 0;
#X connect 12 0 30 0;
#X connect 12 0 30 1;
#X connect 13 0 7 0;
#X connect 14 0 22 0;
#X connect 14 1 15 0;
#X connect 16 0 18 0;
#X connect 16 1 19 0;
#X connect 17 0 21 0;
#X connect 17 1 20 0;
#X connect 22 0 16 0;
#X connect 22 1 17 0;
#X connect 23 0 60 0;
#X connect 24 0 59 0;
#X connect 25 0 31 0;
#X connect 26 0 25 0;
#X connect 27 0 23 0;
#X connect 28 0 24 0;
#X connect 29 0 0 0;
#X connect 31 1 29 0;
#X connect 32 0 62 4;
#X connect 33 0 62 5;
#X connect 34 0 62 1;
#X connect 36 0 62 0;
#X connect 38 0 62 2;
#X connect 39 0 62 3;
#X connect 42 0 38 0;
#X connect 43 0 34 0;
#X connect 44 0 39 0;
#X connect 45 0 61 4;
#X connect 46 0 61 5;
#X connect 47 0 61 1;
#X connect 49 0 61 0;
#X connect 51 0 61 2;
#X connect 52 0 61 3;
#X connect 55 0 51 0;
#X connect 56 0 47 0;
#X connect 57 0 52 0;
#X connect 58 0 14 0;
#X connect 58 0 27 0;
#X connect 58 0 28 0;
#X connect 58 0 26 0;
#X connect 59 1 32 0;
#X connect 60 1 45 0;
#X connect 61 0 30 0;
#X connect 61 0 30 1;
#X connect 62 0 30 0;
#X connect 62 0 30 1;
#X connect 63 0 49 0;
