#N canvas 80 58 1200 976 10;
#X obj 783 16 s 1-zample_number;
#X obj 710 14 tgl 20 1 gran1-mute empty empty 0 -6 0 8 -258699 -1 -1
1 1;
#X obj 739 16 vsl 20 96 -100 20 0 0 gran1gain empty empty 5 12 0 12
-44926 -1 -1 5900 1;
#X obj 774 38 hsl 100 15 2 200 1 1 1-zample_envelope_min empty envelope
6 7 0 8 -262144 -1 -1 6700 1;
#X obj 882 38 nbx 5 14 0 50 0 1 1-zample_envelope_sprd empty rango
60 8 0 10 -257791 -1 -1 17 256;
#X obj 774 59 hsl 100 15 1 5000 1 1 1-zample_sustain_min empty length
6 7 0 8 -262144 -1 -1 7200 1;
#X obj 882 60 nbx 5 14 0 100 0 1 1-zample_sustain_sprd empty rang0
60 8 0 10 -262144 -1 -1 16 256;
#X obj 774 80 hsl 100 15 0 100 0 1 1-zample_gain_min 20-midi gain 6
7 0 8 -262144 -1 -1 7400 1;
#X obj 882 81 nbx 5 14 0 100 0 1 1-zample_gain_sprd empty rango 60
8 0 10 -262144 -1 -1 13 256;
#X obj 774 100 hsl 100 15 0 100 0 1 1-zample_pan_sprd empty stereo_spread
6 7 0 8 -262144 -1 -1 6500 1;
#X obj 885 100 hsl 75 15 0 120 0 1 gran1pan empty pan 1 8 0 8 -262144
-1 -1 3700 1;
#X obj 885 119 hsl 75 15 1 32 0 1 1-zample_voices empty vox 15 9 0
8 -262144 -1 -1 3800 1;
#X obj 774 119 hsl 100 15 99 0 0 1 1-zample_asynch empty asynch 15
9 0 8 -262144 -1 -1 7300 1;
#X obj 771 16 hradio 15 1 1 8 empty empty sample_number 20 7 0 8 -262144
-1 -1 1;
#X obj 1408 659 nbx 5 14 0 10000 0 1 readspread empty grain_spread
60 7 0 10 -262144 -1 -1 10 256;
#X obj 989 12 tgl 20 1 rev-mute empty empty 0 -6 0 8 -258699 -1 -1
1 1;
#X obj 1018 14 vsl 20 96 -100 20 0 0 reverbgain empty empty 5 12 0
12 -44926 -1 -1 5800 1;
#X obj 1054 13 hsl 100 15 0 99 0 1 reverb_room empty room_size 6 7
0 8 -262144 -1 -1 6800 1;
#X obj 1054 36 hsl 100 15 0 100 0 1 reverb_damp empty damping 6 7 0
8 -262144 -1 -1 6100 1;
#X obj 1054 78 hsl 100 15 0 100 0 1 reverb_wetdry empty dry/wet 6 7
0 8 -262144 -1 -1 3599 1;
#X obj 1054 98 hsl 100 15 0 127 0 1 reverb_width empty stereo_width
6 7 0 8 -262144 -1 -1 5200 1;
#X obj 1408 596 nbx 5 14 -1e+037 1e+037 0 0 readpositionin tableloc
scan_target 60 7 0 10 -62784 -1 -1 45 256;
#X obj 1408 618 nbx 6 14 -1e+037 1e+037 0 0 empty scan_speed scan_interpolation
60 7 0 10 -62784 -1 -1 2000 256;
#X obj 1408 679 nbx 5 14 0 10000 0 0 empty ave_g_length ave_grain_length
60 7 0 10 -62784 -1 -1 580.24 256;
#N canvas 0 0 450 300 cpu 0;
#X obj 124 253 outlet;
#X obj 118 168 cputime;
#X obj 118 28 loadbang;
#X obj 118 112 metro 1000;
#X msg 118 56 1;
#X floatatom 118 84 0 0 0 0 - - -;
#X obj 118 140 t b b;
#X obj 118 228 * 0.1;
#X obj 118 197 int;
#X text 163 84 <-- on/off;
#X connect 1 0 8 0;
#X connect 2 0 4 0;
#X connect 3 0 6 0;
#X connect 4 0 5 0;
#X connect 5 0 3 0;
#X connect 6 0 1 0;
#X connect 6 1 1 1;
#X connect 7 0 0 0;
#X connect 8 0 7 0;
#X restore 221 -38 pd cpu;
#N canvas 44 53 456 494 guts 0;
#X obj 185 285 r gran1gain;
#X obj 185 347 pack 0 50;
#X obj 187 207 pack 0 50;
#X obj 175 77 * -1;
#X obj 211 26 r gran1pan;
#X obj 187 186 r gran1-mute;
#X obj 185 306 + 100;
#X obj 185 326 dbtorms;
#X obj 152 460 dac~;
#N canvas 7 176 560 429 scanner 0;
#X obj 136 19 r readspread;
#X obj 136 110 s 1-zample_start_sprd;
#X obj 136 47 / 100;
#X obj 318 16 r 1-zample_envelope_min;
#X obj 358 54 r 1-zample_sustain_min;
#X obj 318 55 * 2;
#X obj -1 171 random_range 0 0;
#X obj 52 104 * -1;
#X obj -1 216 line;
#X obj -1 265 +;
#X obj -1 295 s 1-zample_start_min;
#X obj 52 74 / 10;
#X obj 52 47 r jitter;
#X obj -1 138 metro 100;
#X obj -1 194 pack 0 5;
#X obj 15 19 r readpositionout;
#X obj 318 148 f;
#X obj 358 148 f;
#X obj 358 117 t b f;
#X obj 318 117 t b f;
#X obj 318 170 +;
#X obj 318 192 s ave_g_length;
#X connect 0 0 2 0;
#X connect 2 0 1 0;
#X connect 3 0 5 0;
#X connect 4 0 18 0;
#X connect 5 0 19 0;
#X connect 6 0 14 0;
#X connect 7 0 6 1;
#X connect 8 0 9 0;
#X connect 9 0 10 0;
#X connect 11 0 7 0;
#X connect 11 0 6 2;
#X connect 12 0 11 0;
#X connect 13 0 6 0;
#X connect 14 0 8 0;
#X connect 15 0 9 1;
#X connect 15 0 13 0;
#X connect 16 0 20 0;
#X connect 17 0 20 1;
#X connect 18 0 17 0;
#X connect 18 0 16 0;
#X connect 18 1 17 1;
#X connect 19 0 17 0;
#X connect 19 0 16 0;
#X connect 19 1 16 1;
#X connect 20 0 21 0;
#X restore 72 3 pd scanner;
#N canvas 90 40 1009 673 reverb 0;
#X obj 192 338 r reverbgain;
#X obj 199 149 / 100;
#X obj 190 105 / 100;
#X obj 180 63 / 100;
#X obj 436 66 * -1;
#X obj 357 21 r reverb_wetdry;
#X obj 180 43 r reverb_room;
#X obj 190 85 r reverb_damp;
#X obj 199 128 r reverb_width;
#X obj 192 398 pack 0 50;
#X obj 193 259 pack 0 50;
#X obj 193 235 r rev-mute;
#X obj 357 88 pack 0 100;
#X obj 436 87 pack 0 100;
#X obj 357 108 line;
#X obj 436 108 line;
#X obj 143 1 inlet~;
#X obj 170 23 inlet~;
#X obj 143 516 outlet~;
#X obj 257 518 outlet~;
#X obj 192 358 + 100;
#X obj 192 378 dbtorms;
#X obj 193 281 line~;
#X obj 192 417 line~;
#X obj 160 472 *~;
#X obj 272 472 *~;
#X obj 271 310 *~;
#X obj 161 310 *~;
#X obj 436 46 - 100;
#X obj 161 206 freeverb~;
#X obj 143 493 +~;
#X obj 257 496 +~;
#X connect 0 0 20 0;
#X connect 4 0 13 0;
#X connect 5 0 12 0;
#X connect 5 0 28 0;
#X connect 6 0 3 0;
#X connect 7 0 2 0;
#X connect 8 0 1 0;
#X connect 9 0 23 0;
#X connect 10 0 22 0;
#X connect 11 0 10 0;
#X connect 12 0 14 0;
#X connect 13 0 15 0;
#X connect 16 0 29 0;
#X connect 16 0 30 0;
#X connect 17 0 29 1;
#X connect 17 0 31 0;
#X connect 20 0 21 0;
#X connect 21 0 9 0;
#X connect 22 0 26 1;
#X connect 22 0 27 1;
#X connect 23 0 24 1;
#X connect 23 0 25 1;
#X connect 24 0 30 1;
#X connect 25 0 31 1;
#X connect 26 0 25 0;
#X connect 27 0 24 0;
#X connect 28 0 4 0;
#X connect 29 0 27 0;
#X connect 29 1 26 0;
#X connect 30 0 18 0;
#X connect 31 0 19 0;
#X restore 153 429 pd reverb;
#X obj 187 228 line~;
#X obj 155 257 *~;
#X obj 276 256 *~;
#X obj 185 367 line~;
#X obj 154 396 *~;
#X obj 275 396 *~;
#X obj 291 98 pack 0 50;
#X obj 211 51 / 100;
#X obj 175 100 pack 0 50;
#X obj 154 146 *~;
#X obj 275 146 *~;
#X obj 176 121 line~;
#X obj 291 119 line~;
#X obj 211 77 - 1;
#X obj 153 3 filegranulator 1 1;
#X connect 0 0 6 0;
#X connect 1 0 14 0;
#X connect 2 0 11 0;
#X connect 3 0 19 0;
#X connect 4 0 18 0;
#X connect 5 0 2 0;
#X connect 6 0 7 0;
#X connect 7 0 1 0;
#X connect 10 0 8 0;
#X connect 10 1 8 1;
#X connect 11 0 12 1;
#X connect 11 0 13 1;
#X connect 12 0 15 0;
#X connect 13 0 16 0;
#X connect 14 0 15 1;
#X connect 14 0 16 1;
#X connect 15 0 10 0;
#X connect 16 0 10 1;
#X connect 17 0 23 0;
#X connect 18 0 24 0;
#X connect 18 0 17 0;
#X connect 19 0 22 0;
#X connect 20 0 12 0;
#X connect 21 0 13 0;
#X connect 22 0 20 1;
#X connect 23 0 21 1;
#X connect 24 0 3 0;
#X connect 25 0 20 0;
#X connect 25 1 21 0;
#X restore 1414 558 pd guts;
#X obj 221 -16 nbx 5 14 -1e+037 1e+037 0 0 empty empty empty 0 -6 0
10 -258699 -1 -1 7.8 256;
#X text 376 585 x 1;
#X obj 44 -20 cnv 15 51 16 empty empty empty 20 12 0 14 -233017 -66577
0;
#N canvas 768 50 450 300 load 0;
#X msg -35 24 bang;
#N canvas 540 369 450 300 zample-loader1 0;
#X obj 72 78 inlet;
#X obj 71 110 openpanel;
#X obj 71 195 soundfiler;
#N canvas 0 0 450 300 (subpatch) 0;
#X array 1-zample 7.056e+006 float 0;
#X coords 0 1 7.056e+006 -1 120 30 1;
#X restore 130 134 graph;
#X obj 71 251 s 1-zample_size;
#X msg 81 216 \; 1-zample resize \$1;
#X msg 71 173 read -resize -maxsize 1e+007 \$1 1-zample;
#X connect 0 0 1 0;
#X connect 1 0 6 0;
#X connect 2 0 5 0;
#X connect 2 0 4 0;
#X connect 6 0 2 0;
#X restore 41 126 pd zample-loader1;
#N canvas 192 190 450 300 zample-loader2 0;
#X obj 72 78 inlet;
#X obj 71 110 openpanel;
#X obj 71 195 soundfiler;
#N canvas 0 0 450 300 (subpatch) 0;
#X array 2-zample 5.6448e+006 float 0;
#X coords 0 1 5.6448e+006 -1 120 30 1;
#X restore 130 134 graph;
#X msg 81 216 \; 2-zample resize \$1;
#X obj 71 251 s 2-zample_size;
#X msg 71 173 read -resize -maxsize 1e+007 \$1 2-zample;
#X connect 0 0 1 0;
#X connect 1 0 6 0;
#X connect 2 0 4 0;
#X connect 2 0 5 0;
#X connect 6 0 2 0;
#X restore 42 148 pd zample-loader2;
#N canvas 0 0 450 300 zample-loader3 0;
#X obj 72 78 inlet;
#X obj 71 110 openpanel;
#X obj 71 195 soundfiler;
#N canvas 0 0 450 300 (subpatch) 0;
#X array 3-zample 8.4672e+006 float 0;
#X coords 0 1 8.4672e+006 -1 120 30 1;
#X restore 130 134 graph;
#X msg 81 216 \; 3-zample resize \$1;
#X obj 71 251 s 3-zample_size;
#X msg 71 173 read -resize -maxsize 1e+007 \$1 3-zample;
#X connect 0 0 1 0;
#X connect 1 0 6 0;
#X connect 2 0 4 0;
#X connect 2 0 5 0;
#X connect 6 0 2 0;
#X restore 171 126 pd zample-loader3;
#N canvas 0 0 450 300 zample-loader4 0;
#X obj 72 78 inlet;
#X obj 71 110 openpanel;
#X obj 71 195 soundfiler;
#N canvas 0 0 450 300 (subpatch) 0;
#X array 4-zample 5.6448e+006 float 0;
#X coords 0 1 5.6448e+006 -1 120 30 1;
#X restore 130 134 graph;
#X msg 81 216 \; 4-zample resize \$1;
#X obj 71 251 s 4-zample_size;
#X msg 71 173 read -resize -maxsize 1e+007 \$1 4-zample;
#X connect 0 0 1 0;
#X connect 1 0 6 0;
#X connect 2 0 4 0;
#X connect 2 0 5 0;
#X connect 6 0 2 0;
#X restore 172 148 pd zample-loader4;
#N canvas 0 0 450 300 zample-loader5 0;
#X obj 72 78 inlet;
#X obj 71 110 openpanel;
#X obj 71 195 soundfiler;
#N canvas 0 0 450 300 (subpatch) 0;
#X array 5-zample 2.9404e+006 float 0;
#X coords 0 1 2.9404e+006 -1 120 30 1;
#X restore 130 134 graph;
#X msg 81 216 \; 5-zample resize \$1;
#X obj 71 251 s 5-zample_size;
#X msg 71 173 read -resize -maxsize 1e+007 \$1 5-zample;
#X connect 0 0 1 0;
#X connect 1 0 6 0;
#X connect 2 0 4 0;
#X connect 2 0 5 0;
#X connect 6 0 2 0;
#X restore 41 176 pd zample-loader5;
#N canvas 0 0 450 300 zample-loader6 0;
#X obj 72 78 inlet;
#X obj 71 110 openpanel;
#X obj 71 195 soundfiler;
#N canvas 0 0 450 300 (subpatch) 0;
#X array 6-zample 2.84451e+006 float 0;
#X coords 0 1 2.84451e+006 -1 120 30 1;
#X restore 130 134 graph;
#X msg 81 216 \; 6-zample resize \$1;
#X obj 71 251 s 6-zample_size;
#X msg 71 173 read -resize -maxsize 1e+007 \$1 6-zample;
#X connect 0 0 1 0;
#X connect 1 0 6 0;
#X connect 2 0 4 0;
#X connect 2 0 5 0;
#X connect 6 0 2 0;
#X restore 41 199 pd zample-loader6;
#N canvas 0 0 450 300 zample-loader8 0;
#X obj 72 78 inlet;
#X obj 71 110 openpanel;
#X obj 71 195 soundfiler;
#N canvas 0 0 450 300 (subpatch) 0;
#X array 8-zample 2.84451e+006 float 0;
#X coords 0 1 2.84451e+006 -1 120 30 1;
#X restore 130 134 graph;
#X msg 81 216 \; 8-zample resize \$1;
#X obj 71 251 s 8-zample_size;
#X msg 71 173 read -resize -maxsize 1e+007 \$1 8-zample;
#X connect 0 0 1 0;
#X connect 1 0 6 0;
#X connect 2 0 4 0;
#X connect 2 0 5 0;
#X connect 6 0 2 0;
#X restore 171 199 pd zample-loader8;
#X msg -24 93 bang;
#X msg 190 66 bang;
#X msg 343 141 bang;
#X msg -79 140 bang;
#X msg -61 221 bang;
#X msg 116 235 bang;
#X msg 224 243 bang;
#N canvas 0 0 450 300 zample-loader7 0;
#X obj 72 78 inlet;
#X obj 71 110 openpanel;
#X obj 71 195 soundfiler;
#N canvas 0 0 450 300 (subpatch) 0;
#X array 7-zample 2.84451e+006 float 0;
#X coords 0 1 2.84451e+006 -1 120 30 1;
#X restore 130 134 graph;
#X msg 81 216 \; 7-zample resize \$1;
#X obj 71 251 s 7-zample_size;
#X msg 71 173 read -resize -maxsize 1e+007 \$1 7-zample;
#X connect 0 0 1 0;
#X connect 1 0 6 0;
#X connect 2 0 4 0;
#X connect 2 0 5 0;
#X connect 6 0 2 0;
#X restore 171 176 pd zample-loader7;
#X connect 0 0 1 0;
#X connect 8 0 2 0;
#X connect 9 0 3 0;
#X connect 10 0 4 0;
#X connect 11 0 5 0;
#X connect 12 0 6 0;
#X connect 13 0 15 0;
#X connect 14 0 7 0;
#X restore 44 -20 pd load;
#X obj 774 139 hsl 100 15 0 500 0 1 jitter empty jitter 15 9 0 8 -262144
-1 -1 6400 1;
#X obj 1408 640 nbx 5 14 -1e+037 1e+037 0 0 empty 1-zample_start_min
current_position 60 7 0 10 -62784 -1 -1 20.8989 256;
#X obj 54 397 grid grid1 440 0 1000 125 1 10000 1 1 1 30 20 74 497
;
#N canvas 553 214 692 396 table_locator 0;
#X obj 229 18 inlet;
#X obj 229 47 select 0;
#X obj 299 47 select 1;
#X obj 363 45 select 2;
#X msg 229 70 1;
#X msg 299 70 10;
#X msg 363 67 100;
#X obj 229 114 line;
#X obj 229 92 pack 0 100;
#X obj -44 18 inlet;
#X obj 170 16 inlet;
#X obj -60 223 line;
#X obj 170 152 *;
#X obj -60 203 pack 0 0;
#X obj 170 175 t b f;
#X obj -60 177 f;
#X obj 170 244 s scan_speed;
#X obj -60 246 s readpositionout;
#X obj -9 275 s tableloc;
#X text -4 225 range = 0-1000;
#X text 130 306 Si no tienes un grid puedes hackear este subpatch.
;
#X text 178 221 rango = 0-10000;
#X text -71 -3 x coordenadas = leer posicion;
#X text 158 -3 y coordinadas = escanear velocidad de interpolacion
;
#X connect 0 0 1 0;
#X connect 0 0 2 0;
#X connect 0 0 3 0;
#X connect 1 0 4 0;
#X connect 2 0 5 0;
#X connect 3 0 6 0;
#X connect 4 0 8 0;
#X connect 5 0 8 0;
#X connect 6 0 8 0;
#X connect 7 0 12 1;
#X connect 8 0 7 0;
#X connect 9 0 15 1;
#X connect 9 0 18 0;
#X connect 10 0 12 0;
#X connect 11 0 17 0;
#X connect 12 0 14 0;
#X connect 12 0 16 0;
#X connect 13 0 11 0;
#X connect 14 0 15 0;
#X connect 14 1 13 1;
#X connect 15 0 13 0;
#X restore 224 614 pd table_locator;
#X obj 356 588 vradio 15 1 1 3 empty empty empty 0 -6 0 8 -262144 -1
-1 0;
#X text 376 603 x 10;
#X text 376 617 x 100;
#X floatatom 81 617 5 0 0 0 - - -;
#X obj 39 254 print;
#X obj 557 220 vsl 15 128 0 400 0 0 empty empty empty 0 -9 0 10 -4032
-1 -1 7151 1;
#X obj 588 222 vsl 15 128 0 150 0 0 empty empty empty 0 -9 0 10 -4032
-1 -1 12700 1;
#X obj 623 224 vsl 15 128 0 100 0 0 empty empty empty 0 -9 0 10 -4032
-1 -1 4616 1;
#X text 39 -37 AQUÍ SE CARGAN LOS AUDIOS;
#X obj 73 167 dumpOSC 41234;
#X obj 74 214 unpack s f f f;
#X floatatom 88 247 5 0 0 0 - - -;
#X floatatom 132 249 5 0 0 0 - - -;
#X floatatom 172 249 5 0 0 0 - - -;
#X obj 132 275 * 80;
#X obj 85 275 * 250;
#X obj 311 -49 clock;
#X text 1143 243 Y;
#X obj 171 275 * 50;
#X text 417 603 interpolación;
#X text 417 617 velocidad;
#X text 417 588 gear;
#N canvas 1127 254 723 615 conteo 0;
#X obj 97 51 inlet;
#X obj 41 216 outlet;
#X text 206 206 Y;
#X obj 211 164 unpack f f s;
#X obj 120 136 pack f f;
#X msg 41 130 goto \$1 \$2;
#X obj 191 111 tgl 15 0 empty empty empty 17 7 0 10 -262144 -1 -1 44
44;
#X floatatom 204 192 5 0 0 0 - - -;
#X floatatom 316 191 5 0 0 0 - - -;
#X msg 276 190 bang;
#X text 254 191 X;
#X text 351 190 Y;
#X msg 209 137 20 100 s;
#X obj 104 99 r f4;
#X obj 150 98 r f5;
#X connect 0 0 6 0;
#X connect 3 0 7 0;
#X connect 3 1 8 0;
#X connect 4 0 5 0;
#X connect 5 0 1 0;
#X connect 6 0 12 0;
#X connect 7 0 4 0;
#X connect 8 0 9 0;
#X connect 8 0 4 1;
#X connect 9 0 7 0;
#X connect 12 0 3 0;
#X connect 13 0 4 0;
#X connect 14 0 4 1;
#X restore 217 137 pd conteo;
#X obj 84 305 s f1;
#X obj 133 306 s f2;
#X obj 174 304 s f3;
#X msg 410 -51 0;
#X floatatom 295 7 5 0 0 0 - - -;
#X obj 421 33 bng 15 250 50 0 empty empty empty 17 7 0 10 -262144 -1
-1;
#X obj 450 76 hradio 20 1 0 2 empty empty empty 0 -8 0 4 -262144 -1
-1 0;
#X obj 545 96 route 0 1;
#X msg 293 66 1;
#X msg 445 49 0;
#X obj 555 175 spigot;
#X msg 613 148 0;
#X msg 654 147 1;
#X obj 636 177 tgl 15 0 empty empty empty 17 7 0 10 -262144 -1 -1 0
1;
#X obj 355 31 moses 55;
#X obj 295 33 moses 42;
#X obj 526 145 r f1;
#X obj 575 146 r f2;
#X obj 622 201 r f3;
#X obj 1050 54 r f3;
#X obj 557 355 s f4;
#X obj 591 355 s f5;
#X connect 13 0 0 0;
#X connect 24 0 26 0;
#X connect 32 0 33 0;
#X connect 32 0 37 0;
#X connect 32 1 33 1;
#X connect 34 0 33 2;
#X connect 39 0 77 0;
#X connect 40 0 78 0;
#X connect 43 0 44 0;
#X connect 43 0 38 0;
#X connect 44 1 45 0;
#X connect 44 2 46 0;
#X connect 44 3 47 0;
#X connect 45 0 49 0;
#X connect 46 0 48 0;
#X connect 47 0 52 0;
#X connect 48 0 58 0;
#X connect 49 0 57 0;
#X connect 50 0 56 0;
#X connect 50 0 61 0;
#X connect 52 0 59 0;
#X connect 56 0 32 0;
#X connect 60 0 50 1;
#X connect 61 0 72 0;
#X connect 62 0 60 0;
#X connect 63 0 64 0;
#X connect 64 0 67 0;
#X connect 64 0 68 0;
#X connect 64 1 67 0;
#X connect 64 1 69 0;
#X connect 65 0 63 0;
#X connect 66 0 63 0;
#X connect 67 0 39 0;
#X connect 67 0 40 0;
#X connect 68 0 70 0;
#X connect 69 0 70 0;
#X connect 70 0 67 1;
#X connect 71 1 62 0;
#X connect 72 0 65 0;
#X connect 72 1 66 0;
#X connect 72 1 71 0;
#X connect 72 1 56 0;
#X connect 73 0 67 0;
#X connect 74 0 67 0;
#X connect 75 0 41 0;
#X connect 76 0 19 0;
